# xmcd
#
# Track frame offsets:
#	182
#	14352
#	34775
#	47795
#	61700
#	76582
#	88257
#	105082
#	120472
#	136347
#	152497
#	169920
#	191837
#	209305
#	224542
#	240135
#	254245
#	266050
#
# Disc length: 3727
#
# Revision: 2
# Processed by: cddbd v1.5.1PL0 Copyright (c) Steve Scherf et al.
# Submitted via: CDex 1.50Beta7
# Normalized: r1:DSETVAR1
#
DISCID=f00e8d12
DTITLE=Various Artist - 50 years of Country - Disc 7 - 1991 - 1997
DYEAR=2000
DGENRE=Country
TTITLE0=Billy Dean - Billy the Kid - 1991
TTITLE1=Suzi Bogguss - Letting go - 1992
TTITLE2=Dean Miller - Wake up and smell the whiskey - 1993
TTITLE3=Hall Ketchum - Hearts are gonna roll - 1993
TTITLE4=Sawyer Brown - Thank God for you - 1993
TTITLE5=Palomino Road - Why baby why - 1993
TTITLE6=Steve Wariner - Get Back - 1969
TTITLE7=Tim McGraw - I like it, I love it - 1995
TTITLE8=Jeff Carson - The car - 1995
TTITLE9=John Berry - Standing on the edge of goodbye - 1995
TTITLE10=Leann Rimes - Unchained melody - 1996
TTITLE11=Wynonna - To be loved by you - 1996
TTITLE12=David Kersh - Another you - 1996
TTITLE13=Deana Carter - We danced anyway - 1996
TTITLE14=Jo Dee Messina - Heads Carolina, Tails California - 1996
TTITLE15=Trace Adkins - I left something turned on at home - 1997
TTITLE16=Emilio - I'd love you to love me - 1997
TTITLE17=George Ducas - Long trail of tears - 1997
EXTD=YEAR: 2000
EXTT0=
EXTT1=
EXTT2=
EXTT3=
EXTT4=
EXTT5=
EXTT6=
EXTT7=
EXTT8=
EXTT9=
EXTT10=
EXTT11=
EXTT12=
EXTT13=
EXTT14=
EXTT15=
EXTT16=
EXTT17=
PLAYORDER=
